<svg version="1.0" xmlns="http://www.w3.org/2000/svg"
 width="1800.000000pt" height="1094.000000pt" viewBox="0 0 1800.000000 1094.000000"
 preserveAspectRatio="xMidYMid meet">

<g transform="translate(0.000000,1094.000000) scale(0.100000,-0.100000)"
fill="#000000" stroke="none">
<path d="M0 5470 l0 -5470 9000 0 9000 0 0 5470 0 5470 -9000 0 -9000 0 0
-5470z m14494 3353 c2 -10 5 -54 5 -99 0 -75 -1 -83 -26 -103 l-25 -23 -4377
-3 c-2407 -1 -5131 0 -6053 2 l-1678 4 0 104 c0 104 0 104 28 119 24 13 733
15 6074 16 5750 0 6047 -1 6052 -17z m3 -3571 c3 -2972 2 -3133 -15 -3139 -9
-4 -21 -13 -27 -20 -8 -11 -1065 -13 -6060 -11 l-6050 3 -3 3135 -2 3135 22
17 c22 17 346 17 6078 15 l6055 -2 2 -3133z m1 -3484 l3 -96 -30 -21 -29 -21
-6048 3 -6049 2 -3 100 c-3 93 -1 100 20 117 22 17 309 17 6078 15 l6055 -2 3
-97z"/>
<path d="M3200 7969 c-182 -15 -337 -87 -455 -212 -34 -36 -102 -140 -125
-192 -55 -124 -64 -158 -80 -295 -11 -98 -11 -3902 0 -4000 5 -41 13 -95 19
-120 5 -25 13 -58 16 -75 4 -16 29 -75 55 -130 112 -232 286 -358 555 -405
102 -17 366 -3 381 21 3 5 16 9 30 9 13 0 24 5 24 10 0 6 7 10 15 10 8 0 31 9
52 21 198 110 324 305 376 579 7 36 11 732 14 2035 4 2015 4 2044 -32 2180
-24 92 -31 109 -98 238 -22 41 -114 142 -169 185 -149 114 -341 161 -578 141z
m172 -558 c13 -5 28 -19 34 -32 6 -13 17 -35 23 -49 9 -19 11 -539 9 -2065 -3
-1922 -4 -2042 -21 -2075 -20 -41 -82 -80 -127 -80 -41 0 -84 31 -101 72 -12
28 -14 360 -14 2078 0 2035 0 2045 20 2080 22 37 92 80 131 80 13 0 33 -4 46
-9z"/>
<path d="M13220 7955 c-120 -24 -225 -61 -261 -92 -8 -7 -20 -13 -25 -13 -21
0 -139 -118 -185 -186 -27 -40 -49 -76 -49 -79 0 -3 -8 -24 -19 -48 -34 -77
-54 -145 -70 -248 -7 -43 -11 -321 -11 -790 0 -694 4 -795 30 -864 4 -11 13
-36 20 -55 30 -86 103 -201 182 -281 64 -66 154 -138 273 -218 114 -77 237
-176 283 -227 44 -49 68 -88 106 -173 17 -37 15 -1456 -2 -1496 -14 -33 -68
-73 -111 -81 -46 -9 -97 19 -120 66 -19 40 -20 62 -21 542 0 275 -3 505 -6
509 -6 10 -539 12 -597 3 l-38 -7 4 -481 c3 -264 9 -508 15 -541 13 -76 55
-203 94 -280 65 -130 174 -241 297 -303 76 -39 85 -42 176 -66 140 -38 414
-23 515 27 18 9 39 17 47 17 7 0 13 5 13 10 0 6 5 10 11 10 13 0 95 55 133 89
70 64 173 237 196 332 48 193 45 131 45 999 0 583 -3 824 -11 845 -7 17 -17
50 -24 75 -17 63 -33 99 -84 195 -52 96 -173 211 -336 320 -316 209 -413 303
-439 423 -7 36 -11 258 -11 706 0 547 2 660 15 702 22 74 75 114 149 114 40 0
48 -4 73 -37 l28 -36 5 -541 5 -541 315 0 315 0 0 515 c0 551 0 557 -54 711
-43 126 -143 269 -233 334 -57 41 -151 93 -198 108 -129 43 -316 57 -440 32z"/>
<path d="M11370 7953 c-114 -4 -192 -25 -305 -80 -112 -54 -160 -94 -238 -196
-78 -102 -124 -225 -152 -406 -22 -136 -23 -4692 -1 -4710 9 -8 101 -11 317
-9 l304 3 5 800 c3 440 6 801 8 802 22 14 85 23 168 23 l104 0 2 -812 3 -813
308 -3 307 -2 10 25 c6 17 10 846 9 2288 0 2472 2 2358 -57 2588 -12 46 -57
140 -96 199 -54 82 -156 172 -247 218 -46 23 -90 42 -97 42 -7 0 -20 4 -30 9
-45 24 -186 39 -322 34z m166 -565 c45 -51 44 -16 44 -1356 l0 -1277 -29 -13
c-19 -8 -65 -12 -137 -10 l-109 3 -3 1240 c-3 1273 -2 1315 35 1370 40 60 161
86 199 43z"/>
<path d="M4510 5251 c0 -2256 2 -2680 14 -2690 9 -8 101 -11 317 -9 l304 3 5
815 c5 796 6 816 26 870 12 30 31 87 43 125 11 39 30 99 41 134 11 35 20 70
20 78 0 7 4 21 9 31 5 9 17 43 26 74 11 39 21 55 30 52 7 -3 15 3 18 13 6 27
27 -28 38 -102 5 -33 13 -82 18 -110 5 -27 14 -79 20 -115 14 -78 29 -167 41
-235 19 -106 32 -182 40 -230 29 -175 34 -206 61 -350 5 -27 13 -77 19 -110 6
-33 15 -85 20 -115 5 -30 14 -82 20 -115 6 -33 15 -85 20 -115 5 -30 14 -82
20 -115 6 -33 14 -82 19 -110 5 -27 14 -78 20 -112 26 -149 31 -180 39 -218
l7 -40 359 -3 358 -2 -5 37 c-3 21 -10 58 -17 83 -6 25 -15 64 -21 88 -5 23
-13 61 -19 85 -5 23 -14 65 -20 92 -5 28 -15 70 -20 95 -6 25 -15 65 -20 90
-6 25 -15 65 -20 90 -6 25 -15 64 -21 88 -5 23 -13 62 -19 87 -5 25 -14 65
-20 90 -5 25 -14 65 -20 90 -25 110 -31 142 -36 170 -3 17 -9 39 -14 50 -5 11
-11 36 -14 55 -6 36 -20 102 -38 175 -13 58 -26 113 -38 170 -5 28 -15 70 -20
95 -6 25 -15 64 -21 88 -5 23 -13 62 -19 87 -5 25 -14 65 -20 90 -5 25 -14 64
-19 88 -13 63 -32 147 -43 192 -5 22 -13 59 -19 83 -5 23 -13 61 -18 85 -6 23
-15 62 -21 87 -6 25 -15 63 -19 85 -5 22 -14 65 -21 95 -7 30 -16 73 -21 95
-4 22 -12 58 -18 80 -6 22 -13 54 -16 70 -3 17 -11 49 -17 73 -11 42 -6 74 22
147 8 23 41 129 60 195 7 25 20 70 30 100 10 30 23 75 30 100 7 25 16 54 20
65 4 11 13 40 20 65 16 58 48 160 72 231 10 30 18 63 18 72 0 10 4 25 10 35 5
9 19 51 31 92 12 41 30 100 40 131 11 30 19 63 19 72 0 10 4 25 9 35 5 9 19
51 31 92 13 41 31 100 40 130 10 30 23 75 30 100 6 25 16 53 21 62 5 10 9 24
9 32 0 7 14 56 30 107 17 52 35 112 41 134 7 22 19 65 29 95 9 30 27 89 40
130 12 41 26 85 30 97 5 11 6 24 3 27 -4 3 -165 6 -358 6 -380 0 -367 2 -378
-55 -8 -43 -37 -159 -57 -230 -6 -22 -15 -56 -20 -75 -5 -19 -18 -71 -30 -115
-12 -44 -25 -96 -30 -115 -5 -19 -14 -53 -20 -75 -12 -41 -22 -81 -39 -150 -5
-22 -15 -58 -21 -80 -18 -62 -46 -176 -55 -220 -4 -16 -10 -39 -15 -50 -5 -11
-11 -31 -13 -45 -5 -25 -59 -233 -78 -300 -11 -36 -21 -75 -39 -147 -23 -94
-29 -120 -40 -158 -6 -22 -15 -56 -20 -75 -5 -19 -18 -71 -30 -115 -12 -44
-24 -95 -27 -113 -3 -19 -12 -36 -19 -39 -8 -3 -14 -11 -14 -18 0 -11 -20 -25
-36 -25 -2 0 -4 495 -4 1100 l0 1100 -320 0 -320 0 0 -2679z"/>
<path d="M6803 5593 c3 -1603 7 -2355 15 -2393 20 -107 51 -199 94 -285 95
-188 277 -325 493 -368 65 -13 317 -13 375 0 174 40 318 139 419 290 22 34 41
64 41 68 0 3 8 24 19 48 21 48 34 85 49 142 6 22 17 63 24 90 11 41 13 491 13
2395 l0 2345 -317 3 -318 2 0 -22 c0 -13 -1 -1074 -2 -2358 -3 -2152 -4 -2337
-20 -2363 -25 -43 -80 -77 -127 -77 -45 0 -101 39 -101 70 0 10 -4 22 -10 25
-7 4 -10 803 -10 2366 l0 2359 -320 0 -320 0 3 -2337z"/>
<path d="M8777 7923 c-4 -3 -7 -1208 -7 -2678 0 -2064 3 -2674 12 -2683 17
-17 599 -17 616 0 9 9 12 221 12 895 l0 882 33 15 c22 11 75 17 172 19 77 2
160 9 185 15 25 6 58 14 73 18 79 19 202 103 265 180 46 56 111 176 129 239
46 157 46 155 50 1280 4 1054 1 1190 -27 1275 -4 14 -14 45 -21 70 -54 182
-224 362 -404 425 -135 48 -216 55 -661 55 -231 0 -424 -3 -427 -7z m830 -545
c77 -34 74 15 71 -1228 -3 -1234 2 -1149 -73 -1197 -38 -25 -160 -38 -182 -20
-10 7 -13 263 -13 1218 l0 1208 28 14 c34 19 132 21 169 5z"/>
</g>
</svg>
